<svg version="1.1" viewBox="0.0 0.0 563.6351706036745 156.8188976377953" fill="none" stroke="none" stroke-linecap="square" stroke-miterlimit="10" xmlns:xlink="http://www.w3.org/1999/xlink" xmlns="http://www.w3.org/2000/svg"><clipPath id="p.0"><path d="m0 0l563.6352 0l0 156.8189l-563.6352 0l0 -156.8189z" clip-rule="nonzero"/></clipPath><g clip-path="url(#p.0)"><path fill="#000000" fill-opacity="0.0" d="m0 0l563.6352 0l0 156.8189l-563.6352 0z" fill-rule="evenodd"/><path fill="#fce5cd" d="m56.026245 80.1419c0 -4.5285416 3.6711044 -8.199638 8.199638 -8.199638l82.81332 0c2.1746826 0 4.2602997 0.863884 5.7980194 2.401619c1.537735 1.5377274 2.4016266 3.6233368 2.4016266 5.7980194l0 32.79757c0 4.528534 -3.6710968 8.199638 -8.199646 8.199638l-82.81332 0c-4.528534 0 -8.199638 -3.6711044 -8.199638 -8.199638z" fill-rule="evenodd"/><path stroke="#b45f06" stroke-width="2.0" stroke-linejoin="round" stroke-linecap="butt" d="m56.026245 80.1419c0 -4.5285416 3.6711044 -8.199638 8.199638 -8.199638l82.81332 0c2.1746826 0 4.2602997 0.863884 5.7980194 2.401619c1.537735 1.5377274 2.4016266 3.6233368 2.4016266 5.7980194l0 32.79757c0 4.528534 -3.6710968 8.199638 -8.199646 8.199638l-82.81332 0c-4.528534 0 -8.199638 -3.6711044 -8.199638 -8.199638z" fill-rule="evenodd"/><path fill="#000000" d="m90.726814 103.46068l-2.09375 0l-3.8125 -9.578125l1.921875 0q0.25 0 0.421875 0.125q0.171875 0.125 0.234375 0.3125l1.84375 5.109375q0.15625 0.453125 0.265625 0.890625q0.109375 0.421875 0.203125 0.84375q0.078125 -0.421875 0.1875 -0.84375q0.109375 -0.4375 0.265625 -0.890625l1.90625 -5.109375q0.0625 -0.1875 0.21875 -0.3125q0.171875 -0.125 0.40625 -0.125l1.828125 0l-3.796875 9.578125zm5.1562347 3.125l0 -12.703125l1.40625 0q0.21875 0 0.375 0.109375q0.171875 0.109375 0.21875 0.3125l0.1875 0.890625q0.578125 -0.65625 1.328125 -1.0625q0.75 -0.421875 1.75 -0.421875q0.78125 0 1.421875 0.328125q0.65625 0.328125 1.125 0.953125q0.484375 0.609375 0.734375 1.53125q0.25 0.90625 0.25 2.078125q0 1.078125 -0.296875 2.0q-0.28125 0.90625 -0.8125 1.578125q-0.53125 0.671875 -1.296875 1.046875q-0.765625 0.375 -1.703125 0.375q-0.8125 0 -1.375 -0.25q-0.5625 -0.25 -1.015625 -0.6875l0 3.921875l-2.296875 0zm4.46875 -11.046875q-0.71875 0 -1.234375 0.296875q-0.5 0.296875 -0.9375 0.859375l0 4.28125q0.390625 0.484375 0.84375 0.6875q0.46875 0.1875 1.0 0.1875q0.53125 0 0.953125 -0.1875q0.421875 -0.203125 0.71875 -0.609375q0.296875 -0.40625 0.453125 -1.015625q0.15625 -0.609375 0.15625 -1.4375q0 -0.84375 -0.140625 -1.421875q-0.125 -0.578125 -0.375 -0.9375q-0.25 -0.375 -0.609375 -0.53125q-0.359375 -0.171875 -0.828125 -0.171875zm6.08136 11.046875l0 -12.703125l1.40625 0q0.21875 0 0.375 0.109375q0.171875 0.109375 0.21875 0.3125l0.1875 0.890625q0.578125 -0.65625 1.328125 -1.0625q0.75 -0.421875 1.75 -0.421875q0.78125 0 1.421875 0.328125q0.65625 0.328125 1.125 0.953125q0.484375 0.609375 0.734375 1.53125q0.25 0.90625 0.25 2.078125q0 1.078125 -0.296875 2.0q-0.28125 0.90625 -0.8125 1.578125q-0.53125 0.671875 -1.296875 1.046875q-0.765625 0.375 -1.703125 0.375q-0.8125 0 -1.375 -0.25q-0.5625 -0.25 -1.015625 -0.6875l0 3.921875l-2.296875 0zm4.46875 -11.046875q-0.71875 0 -1.234375 0.296875q-0.5 0.296875 -0.9375 0.859375l0 4.28125q0.390625 0.484375 0.84375 0.6875q0.46875 0.1875 1.0 0.1875q0.53125 0 0.953125 -0.1875q0.421875 -0.203125 0.71875 -0.609375q0.296875 -0.40625 0.453125 -1.015625q0.15625 -0.609375 0.15625 -1.4375q0 -0.84375 -0.140625 -1.421875q-0.125 -0.578125 -0.375 -0.9375q-0.25 -0.375 -0.609375 -0.53125q-0.359375 -0.171875 -0.828125 -0.171875zm7.36261 6.203125l2.734375 0l0 -7.875q0 -0.453125 0.015625 -0.953125l-1.9375 1.625q-0.125 0.09375 -0.25 0.140625q-0.125 0.03125 -0.25 0.03125q-0.171875 0 -0.328125 -0.078125q-0.15625 -0.078125 -0.234375 -0.1875l-0.71875 -1.0l4.109375 -3.484375l1.8906326 0l0 11.78125l2.421875 0l0 1.71875l-7.4531326 0l0 -1.71875z" fill-rule="nonzero"/><path fill="#fce5cd" d="m247.57275 80.1419c0 -4.5285416 3.6710968 -8.199638 8.199646 -8.199638l82.813324 0c2.1746826 0 4.2602844 0.863884 5.798004 2.401619c1.5377502 1.5377274 2.4016113 3.6233368 2.4016113 5.7980194l0 32.79757c0 4.528534 -3.6710815 8.199638 -8.1996155 8.199638l-82.813324 0c-4.528549 0 -8.199646 -3.6711044 -8.199646 -8.199638z" fill-rule="evenodd"/><path stroke="#b45f06" stroke-width="2.0" stroke-linejoin="round" stroke-linecap="butt" d="m247.57275 80.1419c0 -4.5285416 3.6710968 -8.199638 8.199646 -8.199638l82.813324 0c2.1746826 0 4.2602844 0.863884 5.798004 2.401619c1.5377502 1.5377274 2.4016113 3.6233368 2.4016113 5.7980194l0 32.79757c0 4.528534 -3.6710815 8.199638 -8.1996155 8.199638l-82.813324 0c-4.528549 0 -8.199646 -3.6711044 -8.199646 -8.199638z" fill-rule="evenodd"/><path fill="#000000" d="m282.27332 103.46068l-2.09375 0l-3.8125 -9.578125l1.921875 0q0.25 0 0.421875 0.125q0.171875 0.125 0.234375 0.3125l1.84375 5.109375q0.15625 0.453125 0.265625 0.890625q0.109375 0.421875 0.203125 0.84375q0.078125 -0.421875 0.1875 -0.84375q0.109375 -0.4375 0.265625 -0.890625l1.90625 -5.109375q0.0625 -0.1875 0.21875 -0.3125q0.171875 -0.125 0.40625 -0.125l1.828125 0l-3.796875 9.578125zm5.15625 3.125l0 -12.703125l1.40625 0q0.21875 0 0.375 0.109375q0.171875 0.109375 0.21875 0.3125l0.1875 0.890625q0.578125 -0.65625 1.328125 -1.0625q0.75 -0.421875 1.75 -0.421875q0.78125 0 1.421875 0.328125q0.65625 0.328125 1.125 0.953125q0.484375 0.609375 0.734375 1.53125q0.25 0.90625 0.25 2.078125q0 1.078125 -0.296875 2.0q-0.28125 0.90625 -0.8125 1.578125q-0.53125 0.671875 -1.296875 1.046875q-0.765625 0.375 -1.703125 0.375q-0.8125 0 -1.375 -0.25q-0.5625 -0.25 -1.015625 -0.6875l0 3.921875l-2.296875 0zm4.46875 -11.046875q-0.71875 0 -1.234375 0.296875q-0.5 0.296875 -0.9375 0.859375l0 4.28125q0.390625 0.484375 0.84375 0.6875q0.46875 0.1875 1.0 0.1875q0.53125 0 0.953125 -0.1875q0.421875 -0.203125 0.71875 -0.609375q0.296875 -0.40625 0.453125 -1.015625q0.15625 -0.609375 0.15625 -1.4375q0 -0.84375 -0.140625 -1.421875q-0.125 -0.578125 -0.375 -0.9375q-0.25 -0.375 -0.609375 -0.53125q-0.359375 -0.171875 -0.828125 -0.171875zm6.08136 11.046875l0 -12.703125l1.40625 0q0.21875 0 0.375 0.109375q0.171875 0.109375 0.21875 0.3125l0.1875 0.890625q0.578125 -0.65625 1.328125 -1.0625q0.75 -0.421875 1.75 -0.421875q0.78125 0 1.421875 0.328125q0.65625 0.328125 1.125 0.953125q0.484375 0.609375 0.734375 1.53125q0.25 0.90625 0.25 2.078125q0 1.078125 -0.296875 2.0q-0.28125 0.90625 -0.8125 1.578125q-0.53125 0.671875 -1.296875 1.046875q-0.765625 0.375 -1.703125 0.375q-0.8125 0 -1.375 -0.25q-0.5625 -0.25 -1.015625 -0.6875l0 3.921875l-2.296875 0zm4.46875 -11.046875q-0.71875 0 -1.234375 0.296875q-0.5 0.296875 -0.9375 0.859375l0 4.28125q0.390625 0.484375 0.84375 0.6875q0.46875 0.1875 1.0 0.1875q0.53125 0 0.953125 -0.1875q0.421875 -0.203125 0.71875 -0.609375q0.296875 -0.40625 0.453125 -1.015625q0.15625 -0.609375 0.15625 -1.4375q0 -0.84375 -0.140625 -1.421875q-0.125 -0.578125 -0.375 -0.9375q-0.25 -0.375 -0.609375 -0.53125q-0.359375 -0.171875 -0.828125 -0.171875zm10.45636 -5.71875q0.9375 0 1.703125 0.28125q0.78125 0.265625 1.328125 0.78125q0.5625 0.5 0.859375 1.21875q0.3125 0.703125 0.3125 1.5625q0 0.75 -0.21875 1.390625q-0.21875 0.625 -0.59375 1.203125q-0.359375 0.578125 -0.859375 1.125q-0.484375 0.53125 -1.03125 1.09375l-3.046875 3.109375q0.453125 -0.125 0.875 -0.1875q0.4375 -0.078125 0.828125 -0.078125l3.453125 0q0.375 0 0.59375 0.21875q0.21875 0.203125 0.21875 0.546875l0 1.375l-9.25 0l0 -0.765625q0 -0.234375 0.09375 -0.484375q0.109375 -0.25 0.3125 -0.46875l4.09375 -4.109375q0.515625 -0.515625 0.921875 -0.984375q0.40625 -0.484375 0.671875 -0.953125q0.28125 -0.46875 0.421875 -0.9375q0.15625 -0.484375 0.15625 -1.015625q0 -0.484375 -0.140625 -0.84375q-0.140625 -0.375 -0.40625 -0.625q-0.25 -0.265625 -0.609375 -0.390625q-0.359375 -0.125 -0.8125 -0.125q-0.828125 0 -1.375 0.421875q-0.53125 0.421875 -0.734375 1.125q-0.109375 0.359375 -0.3125 0.515625q-0.203125 0.15625 -0.53125 0.15625q-0.140625 0 -0.296875 -0.03125l-1.21875 -0.21875q0.140625 -0.96875 0.53125 -1.6875q0.40625 -0.734375 1.0 -1.21875q0.609375 -0.5 1.390625 -0.75q0.78125 -0.25 1.671875 -0.25z" fill-rule="nonzero"/><path fill="#fce5cd" d="m439.11868 80.1419c0 -4.5285416 3.671112 -8.199638 8.199646 -8.199638l82.813324 0c2.1746826 0 4.260254 0.863884 5.7980347 2.401619c1.5377197 1.5377274 2.4016113 3.6233368 2.4016113 5.7980194l0 32.79757c0 4.528534 -3.6711426 8.199638 -8.199646 8.199638l-82.813324 0c-4.528534 0 -8.199646 -3.6711044 -8.199646 -8.199638z" fill-rule="evenodd"/><path stroke="#b45f06" stroke-width="2.0" stroke-linejoin="round" stroke-linecap="butt" d="m439.11868 80.1419c0 -4.5285416 3.671112 -8.199638 8.199646 -8.199638l82.813324 0c2.1746826 0 4.260254 0.863884 5.7980347 2.401619c1.5377197 1.5377274 2.4016113 3.6233368 2.4016113 5.7980194l0 32.79757c0 4.528534 -3.6711426 8.199638 -8.199646 8.199638l-82.813324 0c-4.528534 0 -8.199646 -3.6711044 -8.199646 -8.199638z" fill-rule="evenodd"/><path fill="#000000" d="m473.27383 95.9138q-0.09375 0.125 -0.203125 0.203125q-0.09375 0.078125 -0.28125 0.078125q-0.171875 0 -0.34375 -0.109375q-0.171875 -0.109375 -0.40625 -0.234375q-0.21875 -0.140625 -0.546875 -0.25q-0.328125 -0.109375 -0.796875 -0.109375q-0.609375 0 -1.0625 0.21875q-0.453125 0.21875 -0.765625 0.640625q-0.296875 0.40625 -0.453125 0.984375q-0.140625 0.578125 -0.140625 1.328125q0 0.75 0.15625 1.359375q0.171875 0.59375 0.46875 1.0q0.3125 0.40625 0.75 0.625q0.4375 0.203125 0.984375 0.203125q0.5625 0 0.890625 -0.140625q0.34375 -0.140625 0.578125 -0.296875q0.234375 -0.15625 0.40625 -0.296875q0.171875 -0.140625 0.390625 -0.140625q0.28125 0 0.421875 0.21875l0.65625 0.84375q-0.375 0.4375 -0.828125 0.75q-0.453125 0.296875 -0.9375 0.484375q-0.46875 0.171875 -0.984375 0.25q-0.515625 0.078125 -1.015625 0.078125q-0.890625 0 -1.671875 -0.328125q-0.78125 -0.328125 -1.375 -0.96875q-0.578125 -0.640625 -0.921875 -1.546875q-0.328125 -0.921875 -0.328125 -2.09375q0 -1.0625 0.296875 -1.953125q0.296875 -0.90625 0.890625 -1.5625q0.59375 -0.65625 1.453125 -1.03125q0.875 -0.375 2.0 -0.375q1.078125 0 1.875 0.34375q0.8125 0.34375 1.453125 0.984375l-0.609375 0.84375zm4.633423 -6.3125l0 13.859375l-2.3125 0l0 -13.859375l2.3125 0zm5.055847 4.28125l0 9.578125l-2.3125 0l0 -9.578125l2.3125 0zm0.34375 -2.78125q0 0.296875 -0.125 0.5625q-0.125 0.265625 -0.328125 0.46875q-0.1875 0.1875 -0.46875 0.3125q-0.265625 0.109375 -0.578125 0.109375q-0.296875 0 -0.5625 -0.109375q-0.265625 -0.125 -0.46875 -0.3125q-0.1875 -0.203125 -0.3125 -0.46875q-0.109375 -0.265625 -0.109375 -0.5625q0 -0.3125 0.109375 -0.578125q0.125 -0.265625 0.3125 -0.453125q0.203125 -0.203125 0.46875 -0.3125q0.265625 -0.125 0.5625 -0.125q0.3125 0 0.578125 0.125q0.28125 0.109375 0.46875 0.3125q0.203125 0.1875 0.328125 0.453125q0.125 0.265625 0.125 0.578125zm6.212097 2.640625q0.90625 0 1.65625 0.296875q0.765625 0.28125 1.3125 0.84375q0.5625 0.546875 0.859375 1.359375q0.3125 0.796875 0.3125 1.84375q0 0.25 -0.03125 0.421875q-0.015625 0.171875 -0.078125 0.28125q-0.0625 0.09375 -0.171875 0.140625q-0.09375 0.03125 -0.25 0.03125l-5.921875 0q0.109375 1.484375 0.796875 2.171875q0.6875 0.6875 1.828125 0.6875q0.5625 0 0.96875 -0.125q0.40625 -0.140625 0.703125 -0.296875q0.3125 -0.15625 0.53125 -0.28125q0.234375 -0.140625 0.453125 -0.140625q0.140625 0 0.234375 0.0625q0.109375 0.046875 0.1875 0.15625l0.671875 0.84375q-0.390625 0.4375 -0.875 0.75q-0.46875 0.296875 -0.984375 0.484375q-0.515625 0.171875 -1.0625 0.25q-0.53125 0.078125 -1.03125 0.078125q-1.0 0 -1.859375 -0.328125q-0.859375 -0.328125 -1.5 -0.96875q-0.625 -0.65625 -0.984375 -1.609375q-0.359375 -0.96875 -0.359375 -2.21875q0 -0.984375 0.3125 -1.84375q0.3125 -0.875 0.90625 -1.5q0.59375 -0.640625 1.4375 -1.015625q0.859375 -0.375 1.9375 -0.375zm0.046875 1.65625q-1.015625 0 -1.578125 0.5625q-0.5625 0.5625 -0.734375 1.609375l4.328125 0q0 -0.4375 -0.125 -0.828125q-0.109375 -0.40625 -0.359375 -0.703125q-0.25 -0.296875 -0.640625 -0.46875q-0.375 -0.171875 -0.890625 -0.171875zm5.9717712 8.0625l0 -9.578125l1.40625 0q0.453125 0 0.59375 0.421875l0.15625 0.765625q0.28125 -0.296875 0.59375 -0.53125q0.328125 -0.25 0.6875 -0.421875q0.359375 -0.1875 0.765625 -0.28125q0.421875 -0.09375 0.90625 -0.09375q0.78125 0 1.390625 0.265625q0.609375 0.265625 1.015625 0.75q0.40625 0.46875 0.609375 1.140625q0.21875 0.671875 0.21875 1.46875l0 6.09375l-2.3125 0l0 -6.09375q0 -0.875 -0.40625 -1.34375q-0.40625 -0.484375 -1.21875 -0.484375q-0.59375 0 -1.125 0.265625q-0.515625 0.265625 -0.984375 0.734375l0 6.921875l-2.296875 0zm13.746674 0.15625q-1.234375 0 -1.90625 -0.703125q-0.671875 -0.71875 -0.671875 -1.953125l0 -5.34375l-0.96875 0q-0.1875 0 -0.32809448 -0.125q-0.140625 -0.125 -0.140625 -0.359375l0 -0.921875l1.5468445 -0.25l0.484375 -2.609375q0.03125 -0.1875 0.171875 -0.28125q0.140625 -0.109375 0.34375 -0.109375l1.1875 0l0 3.015625l2.515625 0l0 1.640625l-2.515625 0l0 5.1875q0 0.453125 0.21875 0.703125q0.234375 0.25 0.609375 0.25q0.203125 0 0.34375 -0.046875q0.15625 -0.0625 0.265625 -0.109375q0.109375 -0.0625 0.1875 -0.109375q0.078125 -0.0625 0.171875 -0.0625q0.09375 0 0.15625 0.0625q0.078125 0.046875 0.140625 0.15625l0.703125 1.109375q-0.515625 0.421875 -1.171875 0.640625q-0.640625 0.21875 -1.34375 0.21875z" fill-rule="nonzero"/><path fill="#000000" fill-opacity="0.0" d="m155.23885 96.54068l92.34645 0" fill-rule="evenodd"/><path stroke="#000000" stroke-width="2.0" stroke-linejoin="round" stroke-linecap="butt" d="m155.23885 96.54068l92.34645 0" fill-rule="evenodd"/><path fill="#000000" fill-opacity="0.0" d="m346.78534 96.54068l92.346466 0" fill-rule="evenodd"/><path stroke="#000000" stroke-width="2.0" stroke-linejoin="round" stroke-linecap="butt" d="m346.78534 96.54068l92.346466 0" fill-rule="evenodd"/><path fill="#000000" fill-opacity="0.0" d="m56.026245 96.54068l-34.015747 0" fill-rule="evenodd"/><path stroke="#000000" stroke-width="1.0" stroke-linejoin="round" stroke-linecap="butt" d="m56.026245 96.54068l-34.015747 0" fill-rule="evenodd"/><path fill="#000000" fill-opacity="0.0" d="m17.918634 81.9895l47.968506 0l0 14.551178l-47.968506 0z" fill-rule="evenodd"/><path fill="#000000" d="m32.826546 87.2595q0.578125 0 1.0625 0.1875q0.484375 0.1875 0.84375 0.546875q0.359375 0.34375 0.546875 0.875q0.203125 0.515625 0.203125 1.171875q0 0.171875 -0.015625 0.28125q-0.015625 0.109375 -0.0625 0.171875q-0.03125 0.0625 -0.09375 0.09375q-0.0625 0.03125 -0.171875 0.03125l-3.796875 0q0.0625 0.953125 0.5 1.390625q0.453125 0.4375 1.1875 0.4375q0.359375 0 0.609375 -0.078125q0.265625 -0.078125 0.453125 -0.171875q0.203125 -0.109375 0.34375 -0.1875q0.15625 -0.09375 0.296875 -0.09375q0.078125 0 0.140625 0.03125q0.078125 0.03125 0.125 0.109375l0.4375 0.53125q-0.25 0.296875 -0.5625 0.5q-0.296875 0.1875 -0.640625 0.3125q-0.328125 0.109375 -0.671875 0.15625q-0.34375 0.046875 -0.671875 0.046875q-0.640625 0 -1.203125 -0.21875q-0.546875 -0.21875 -0.953125 -0.625q-0.40625 -0.421875 -0.640625 -1.03125q-0.234375 -0.625 -0.234375 -1.421875q0 -0.640625 0.203125 -1.1875q0.203125 -0.5625 0.578125 -0.96875q0.390625 -0.40625 0.9375 -0.640625q0.546875 -0.25 1.25 -0.25zm0.015625 1.0625q-0.640625 0 -1.015625 0.375q-0.359375 0.359375 -0.453125 1.03125l2.78125 0q0 -0.296875 -0.078125 -0.546875q-0.078125 -0.25 -0.25 -0.4375q-0.15625 -0.203125 -0.40625 -0.3125q-0.234375 -0.109375 -0.578125 -0.109375zm5.8671722 5.28125q-0.796875 0 -1.234375 -0.453125q-0.421875 -0.453125 -0.421875 -1.25l0 -3.4375l-0.625 0q-0.125 0 -0.21875 -0.078125q-0.078125 -0.078125 -0.078125 -0.234375l0 -0.59375l0.984375 -0.15625l0.3125 -1.671875q0.03125 -0.125 0.109375 -0.1875q0.09375 -0.078125 0.21875 -0.078125l0.78125 0l0 1.9375l1.609375 0l0 1.0625l-1.609375 0l0 3.34375q0 0.28125 0.140625 0.453125q0.140625 0.15625 0.375 0.15625q0.140625 0 0.234375 -0.03125q0.09375 -0.03125 0.15625 -0.0625q0.078125 -0.046875 0.125 -0.078125q0.0625 -0.03125 0.109375 -0.03125q0.078125 0 0.109375 0.03125q0.046875 0.03125 0.09375 0.09375l0.4375 0.71875q-0.3125 0.265625 -0.734375 0.40625q-0.421875 0.140625 -0.875 0.140625zm2.6284027 -0.09375l0 -8.921875l1.484375 0l0 3.4375q0.359375 -0.34375 0.78125 -0.546875q0.4375 -0.21875 1.015625 -0.21875q0.5 0 0.890625 0.171875q0.390625 0.171875 0.65625 0.484375q0.265625 0.296875 0.390625 0.734375q0.140625 0.421875 0.140625 0.9375l0 3.921875l-1.484375 0l0 -3.921875q0 -0.5625 -0.265625 -0.859375q-0.25 -0.3125 -0.78125 -0.3125q-0.375 0 -0.71875 0.171875q-0.328125 0.171875 -0.625 0.46875l0 4.453125l-1.484375 0zm7.634552 -1.109375l1.7656288 0l0 -5.0625q0 -0.296875 0.015625 -0.609375l-1.2500038 1.046875q-0.078125 0.0625 -0.15625 0.09375q-0.078125 0.015625 -0.15625 0.015625q-0.125 0 -0.234375 -0.046875q-0.09375 -0.0625 -0.140625 -0.125l-0.46875 -0.640625l2.6562538 -2.25l1.21875 0l0 7.578125l1.546875 0l0 1.109375l-4.796879 0l0 -1.109375z" fill-rule="nonzero"/><path fill="#000000" fill-opacity="0.0" d="m145.03412 81.9895l47.968506 0l0 14.551178l-47.968506 0z" fill-rule="evenodd"/><path fill="#000000" d="m159.94203 87.2595q0.578125 0 1.0625 0.1875q0.484375 0.1875 0.84375 0.546875q0.359375 0.34375 0.546875 0.875q0.203125 0.515625 0.203125 1.171875q0 0.171875 -0.015625 0.28125q-0.015625 0.109375 -0.0625 0.171875q-0.03125 0.0625 -0.09375 0.09375q-0.0625 0.03125 -0.171875 0.03125l-3.796875 0q0.0625 0.953125 0.5 1.390625q0.453125 0.4375 1.1875 0.4375q0.359375 0 0.609375 -0.078125q0.265625 -0.078125 0.453125 -0.171875q0.203125 -0.109375 0.34375 -0.1875q0.15625 -0.09375 0.296875 -0.09375q0.078125 0 0.140625 0.03125q0.078125 0.03125 0.125 0.109375l0.4375 0.53125q-0.25 0.296875 -0.5625 0.5q-0.296875 0.1875 -0.640625 0.3125q-0.328125 0.109375 -0.671875 0.15625q-0.34375 0.046875 -0.671875 0.046875q-0.640625 0 -1.203125 -0.21875q-0.546875 -0.21875 -0.953125 -0.625q-0.40625 -0.421875 -0.640625 -1.03125q-0.234375 -0.625 -0.234375 -1.421875q0 -0.640625 0.203125 -1.1875q0.203125 -0.5625 0.578125 -0.96875q0.390625 -0.40625 0.9375 -0.640625q0.546875 -0.25 1.25 -0.25zm0.015625 1.0625q-0.640625 0 -1.015625 0.375q-0.359375 0.359375 -0.453125 1.03125l2.78125 0q0 -0.296875 -0.078125 -0.546875q-0.078125 -0.25 -0.25 -0.4375q-0.15625 -0.203125 -0.40625 -0.3125q-0.234375 -0.109375 -0.578125 -0.109375zm5.8671722 5.28125q-0.796875 0 -1.234375 -0.453125q-0.421875 -0.453125 -0.421875 -1.25l0 -3.4375l-0.625 0q-0.125 0 -0.21875 -0.078125q-0.078125 -0.078125 -0.078125 -0.234375l0 -0.59375l0.984375 -0.15625l0.3125 -1.671875q0.03125 -0.125 0.109375 -0.1875q0.09375 -0.078125 0.21875 -0.078125l0.78125 0l0 1.9375l1.609375 0l0 1.0625l-1.609375 0l0 3.34375q0 0.28125 0.140625 0.453125q0.140625 0.15625 0.375 0.15625q0.140625 0 0.234375 -0.03125q0.09375 -0.03125 0.15625 -0.0625q0.078125 -0.046875 0.125 -0.078125q0.0625 -0.03125 0.109375 -0.03125q0.078125 0 0.109375 0.03125q0.046875 0.03125 0.09375 0.09375l0.4375 0.71875q-0.3125 0.265625 -0.734375 0.40625q-0.421875 0.140625 -0.875 0.140625zm2.6284027 -0.09375l0 -8.921875l1.484375 0l0 3.4375q0.359375 -0.34375 0.78125 -0.546875q0.4375 -0.21875 1.015625 -0.21875q0.5 0 0.890625 0.171875q0.390625 0.171875 0.65625 0.484375q0.265625 0.296875 0.390625 0.734375q0.140625 0.421875 0.140625 0.9375l0 3.921875l-1.484375 0l0 -3.921875q0 -0.5625 -0.265625 -0.859375q-0.25 -0.3125 -0.78125 -0.3125q-0.375 0 -0.71875 0.171875q-0.328125 0.171875 -0.625 0.46875l0 4.453125l-1.484375 0zm9.634552 -8.765625q0.609375 0 1.09375 0.171875q0.5 0.171875 0.859375 0.5q0.359375 0.328125 0.546875 0.78125q0.203125 0.453125 0.203125 1.015625q0 0.484375 -0.140625 0.890625q-0.140625 0.40625 -0.375 0.78125q-0.234375 0.359375 -0.5625 0.71875q-0.3125 0.34375 -0.65625 0.703125l-1.96875 2.0q0.296875 -0.09375 0.5625 -0.125q0.28125 -0.046875 0.53125 -0.046875l2.234375 0q0.234375 0 0.375 0.140625q0.140625 0.125 0.140625 0.34375l0 0.890625l-5.953125 0l0 -0.484375q0 -0.15625 0.0625 -0.3125q0.0625 -0.171875 0.203125 -0.3125l2.640625 -2.640625q0.328125 -0.328125 0.578125 -0.625q0.265625 -0.3125 0.4375 -0.609375q0.1875 -0.3125 0.28125 -0.609375q0.09375 -0.3125 0.09375 -0.65625q0 -0.3125 -0.09375 -0.546875q-0.09375 -0.234375 -0.265625 -0.390625q-0.15625 -0.171875 -0.390625 -0.25q-0.234375 -0.09375 -0.515625 -0.09375q-0.53125 0 -0.890625 0.28125q-0.34375 0.265625 -0.46875 0.71875q-0.078125 0.234375 -0.203125 0.328125q-0.125 0.09375 -0.34375 0.09375q-0.078125 0 -0.1875 -0.015625l-0.78125 -0.140625q0.09375 -0.609375 0.34375 -1.078125q0.265625 -0.484375 0.640625 -0.796875q0.390625 -0.3125 0.890625 -0.46875q0.5 -0.15625 1.078125 -0.15625z" fill-rule="nonzero"/><path fill="#000000" fill-opacity="0.0" d="m209.91864 81.9895l47.968506 0l0 14.551178l-47.968506 0z" fill-rule="evenodd"/><path fill="#000000" d="m224.82655 87.2595q0.578125 0 1.0625 0.1875q0.484375 0.1875 0.84375 0.546875q0.359375 0.34375 0.546875 0.875q0.203125 0.515625 0.203125 1.171875q0 0.171875 -0.015625 0.28125q-0.015625 0.109375 -0.0625 0.171875q-0.03125 0.0625 -0.09375 0.09375q-0.0625 0.03125 -0.171875 0.03125l-3.796875 0q0.0625 0.953125 0.5 1.390625q0.453125 0.4375 1.1875 0.4375q0.359375 0 0.609375 -0.078125q0.265625 -0.078125 0.453125 -0.171875q0.203125 -0.109375 0.34375 -0.1875q0.15625 -0.09375 0.296875 -0.09375q0.078125 0 0.140625 0.03125q0.078125 0.03125 0.125 0.109375l0.4375 0.53125q-0.25 0.296875 -0.5625 0.5q-0.296875 0.1875 -0.640625 0.3125q-0.328125 0.109375 -0.671875 0.15625q-0.34375 0.046875 -0.671875 0.046875q-0.640625 0 -1.203125 -0.21875q-0.546875 -0.21875 -0.953125 -0.625q-0.40625 -0.421875 -0.640625 -1.03125q-0.234375 -0.625 -0.234375 -1.421875q0 -0.640625 0.203125 -1.1875q0.203125 -0.5625 0.578125 -0.96875q0.390625 -0.40625 0.9375 -0.640625q0.546875 -0.25 1.25 -0.25zm0.015625 1.0625q-0.640625 0 -1.015625 0.375q-0.359375 0.359375 -0.453125 1.03125l2.78125 0q0 -0.296875 -0.078125 -0.546875q-0.078125 -0.25 -0.25 -0.4375q-0.15625 -0.203125 -0.40625 -0.3125q-0.234375 -0.109375 -0.578125 -0.109375zm5.8671722 5.28125q-0.796875 0 -1.234375 -0.453125q-0.421875 -0.453125 -0.421875 -1.25l0 -3.4375l-0.625 0q-0.125 0 -0.21875 -0.078125q-0.078125 -0.078125 -0.078125 -0.234375l0 -0.59375l0.984375 -0.15625l0.3125 -1.671875q0.03125 -0.125 0.109375 -0.1875q0.09375 -0.078125 0.21875 -0.078125l0.78125 0l0 1.9375l1.609375 0l0 1.0625l-1.609375 0l0 3.34375q0 0.28125 0.140625 0.453125q0.140625 0.15625 0.375 0.15625q0.140625 0 0.234375 -0.03125q0.09375 -0.03125 0.15625 -0.0625q0.078125 -0.046875 0.125 -0.078125q0.0625 -0.03125 0.109375 -0.03125q0.078125 0 0.109375 0.03125q0.046875 0.03125 0.09375 0.09375l0.4375 0.71875q-0.3125 0.265625 -0.734375 0.40625q-0.421875 0.140625 -0.875 0.140625zm2.6284027 -0.09375l0 -8.921875l1.484375 0l0 3.4375q0.359375 -0.34375 0.78125 -0.546875q0.4375 -0.21875 1.015625 -0.21875q0.5 0 0.890625 0.171875q0.390625 0.171875 0.65625 0.484375q0.265625 0.296875 0.390625 0.734375q0.140625 0.421875 0.140625 0.9375l0 3.921875l-1.484375 0l0 -3.921875q0 -0.5625 -0.265625 -0.859375q-0.25 -0.3125 -0.78125 -0.3125q-0.375 0 -0.71875 0.171875q-0.328125 0.171875 -0.625 0.46875l0 4.453125l-1.484375 0zm7.634552 -1.109375l1.765625 0l0 -5.0625q0 -0.296875 0.015625 -0.609375l-1.25 1.046875q-0.078125 0.0625 -0.15625 0.09375q-0.078125 0.015625 -0.15625 0.015625q-0.125 0 -0.234375 -0.046875q-0.09375 -0.0625 -0.140625 -0.125l-0.46875 -0.640625l2.65625 -2.25l1.21875 0l0 7.578125l1.546875 0l0 1.109375l-4.796875 0l0 -1.109375z" fill-rule="nonzero"/><path fill="#000000" fill-opacity="0.0" d="m337.03412 81.9895l47.968506 0l0 14.551178l-47.968506 0z" fill-rule="evenodd"/><path fill="#000000" d="m351.94205 87.2595q0.578125 0 1.0625 0.1875q0.484375 0.1875 0.84375 0.546875q0.359375 0.34375 0.546875 0.875q0.203125 0.515625 0.203125 1.171875q0 0.171875 -0.015625 0.28125q-0.015625 0.109375 -0.0625 0.171875q-0.03125 0.0625 -0.09375 0.09375q-0.0625 0.03125 -0.171875 0.03125l-3.796875 0q0.0625 0.953125 0.5 1.390625q0.453125 0.4375 1.1875 0.4375q0.359375 0 0.609375 -0.078125q0.265625 -0.078125 0.453125 -0.171875q0.203125 -0.109375 0.34375 -0.1875q0.15625 -0.09375 0.296875 -0.09375q0.078125 0 0.140625 0.03125q0.078125 0.03125 0.125 0.109375l0.4375 0.53125q-0.25 0.296875 -0.5625 0.5q-0.296875 0.1875 -0.640625 0.3125q-0.328125 0.109375 -0.671875 0.15625q-0.34375 0.046875 -0.671875 0.046875q-0.640625 0 -1.203125 -0.21875q-0.546875 -0.21875 -0.953125 -0.625q-0.40625 -0.421875 -0.640625 -1.03125q-0.234375 -0.625 -0.234375 -1.421875q0 -0.640625 0.203125 -1.1875q0.203125 -0.5625 0.578125 -0.96875q0.390625 -0.40625 0.9375 -0.640625q0.546875 -0.25 1.25 -0.25zm0.015625 1.0625q-0.640625 0 -1.015625 0.375q-0.359375 0.359375 -0.453125 1.03125l2.78125 0q0 -0.296875 -0.078125 -0.546875q-0.078125 -0.25 -0.25 -0.4375q-0.15625 -0.203125 -0.40625 -0.3125q-0.234375 -0.109375 -0.578125 -0.109375zm5.867157 5.28125q-0.796875 0 -1.234375 -0.453125q-0.421875 -0.453125 -0.421875 -1.25l0 -3.4375l-0.625 0q-0.125 0 -0.21875 -0.078125q-0.078125 -0.078125 -0.078125 -0.234375l0 -0.59375l0.984375 -0.15625l0.3125 -1.671875q0.03125 -0.125 0.109375 -0.1875q0.09375 -0.078125 0.21875 -0.078125l0.78125 0l0 1.9375l1.609375 0l0 1.0625l-1.609375 0l0 3.34375q0 0.28125 0.140625 0.453125q0.140625 0.15625 0.375 0.15625q0.140625 0 0.234375 -0.03125q0.09375 -0.03125 0.15625 -0.0625q0.078125 -0.046875 0.125 -0.078125q0.0625 -0.03125 0.109375 -0.03125q0.078125 0 0.109375 0.03125q0.046875 0.03125 0.09375 0.09375l0.4375 0.71875q-0.3125 0.265625 -0.734375 0.40625q-0.421875 0.140625 -0.875 0.140625zm2.628418 -0.09375l0 -8.921875l1.484375 0l0 3.4375q0.359375 -0.34375 0.78125 -0.546875q0.4375 -0.21875 1.015625 -0.21875q0.5 0 0.890625 0.171875q0.390625 0.171875 0.65625 0.484375q0.265625 0.296875 0.390625 0.734375q0.140625 0.421875 0.140625 0.9375l0 3.921875l-1.484375 0l0 -3.921875q0 -0.5625 -0.265625 -0.859375q-0.25 -0.3125 -0.78125 -0.3125q-0.375 0 -0.71875 0.171875q-0.328125 0.171875 -0.625 0.46875l0 4.453125l-1.484375 0zm9.634552 -8.765625q0.609375 0 1.09375 0.171875q0.5 0.171875 0.859375 0.5q0.359375 0.328125 0.546875 0.78125q0.203125 0.453125 0.203125 1.015625q0 0.484375 -0.140625 0.890625q-0.140625 0.40625 -0.375 0.78125q-0.234375 0.359375 -0.5625 0.71875q-0.3125 0.34375 -0.65625 0.703125l-1.96875 2.0q0.296875 -0.09375 0.5625 -0.125q0.28125 -0.046875 0.53125 -0.046875l2.234375 0q0.234375 0 0.375 0.140625q0.140625 0.125 0.140625 0.34375l0 0.890625l-5.953125 0l0 -0.484375q0 -0.15625 0.0625 -0.3125q0.0625 -0.171875 0.203125 -0.3125l2.640625 -2.640625q0.328125 -0.328125 0.578125 -0.625q0.265625 -0.3125 0.4375 -0.609375q0.1875 -0.3125 0.28125 -0.609375q0.09375 -0.3125 0.09375 -0.65625q0 -0.3125 -0.09375 -0.546875q-0.09375 -0.234375 -0.265625 -0.390625q-0.15625 -0.171875 -0.390625 -0.25q-0.234375 -0.09375 -0.515625 -0.09375q-0.53125 0 -0.890625 0.28125q-0.34375 0.265625 -0.46875 0.71875q-0.078125 0.234375 -0.203125 0.328125q-0.125 0.09375 -0.34375 0.09375q-0.078125 0 -0.1875 -0.015625l-0.78125 -0.140625q0.09375 -0.609375 0.34375 -1.078125q0.265625 -0.484375 0.640625 -0.796875q0.390625 -0.3125 0.890625 -0.46875q0.5 -0.15625 1.078125 -0.15625z" fill-rule="nonzero"/><path fill="#000000" fill-opacity="0.0" d="m105.632545 71.94226l0 -14.4881935" fill-rule="evenodd"/><path stroke="#000000" stroke-width="1.0" stroke-linejoin="round" stroke-linecap="butt" d="m105.632545 71.94226l0 -10.698193" fill-rule="evenodd"/><path fill="#000000" stroke="#000000" stroke-width="1.0" stroke-linecap="butt" d="m105.632545 57.954067c0.9085083 0 1.6449966 0.73649216 1.6449966 1.6450005c0 0.9085083 -0.73648834 1.6450005 -1.6449966 1.6450005c-0.9085083 0 -1.6449966 -0.73649216 -1.6449966 -1.6450005c0 -0.9085083 0.73648834 -1.6450005 1.6449966 -1.6450005z" fill-rule="nonzero"/><path fill="#000000" fill-opacity="0.0" d="m300.7139 71.94226l0 -14.4881935" fill-rule="evenodd"/><path stroke="#000000" stroke-width="1.0" stroke-linejoin="round" stroke-linecap="butt" d="m300.7139 71.94226l0 -10.698193" fill-rule="evenodd"/><path fill="#000000" stroke="#000000" stroke-width="1.0" stroke-linecap="butt" d="m300.7139 57.954067c0.9085083 0 1.6450195 0.73649216 1.6450195 1.6450005c0 0.9085083 -0.73651123 1.6450005 -1.6450195 1.6450005c-0.9085083 0 -1.644989 -0.73649216 -1.644989 -1.6450005c0 -0.9085083 0.7364807 -1.6450005 1.644989 -1.6450005z" fill-rule="nonzero"/><path fill="#000000" fill-opacity="0.0" d="m276.72964 42.902885l47.968506 0l0 14.551182l-47.968506 0z" fill-rule="evenodd"/><path fill="#000000" d="m287.7678 45.50101l0 8.921875l-1.484375 0l0 -8.921875l1.484375 0zm4.2989197 2.671875q0.6875 0 1.25 0.21875q0.5625 0.21875 0.953125 0.640625q0.40625 0.40625 0.609375 1.0q0.21875 0.578125 0.21875 1.296875q0 0.734375 -0.21875 1.328125q-0.203125 0.578125 -0.609375 1.0q-0.390625 0.40625 -0.953125 0.640625q-0.5625 0.21875 -1.25 0.21875q-0.6875 0 -1.25 -0.21875q-0.5625 -0.234375 -0.96875 -0.640625q-0.40625 -0.421875 -0.625 -1.0q-0.21875 -0.59375 -0.21875 -1.328125q0 -0.71875 0.21875 -1.296875q0.21875 -0.59375 0.625 -1.0q0.40625 -0.421875 0.96875 -0.640625q0.5625 -0.21875 1.25 -0.21875zm0 5.203125q0.765625 0 1.125 -0.515625q0.375 -0.515625 0.375 -1.515625q0 -1.0 -0.375 -1.515625q-0.359375 -0.53125 -1.125 -0.53125q-0.78125 0 -1.15625 0.53125q-0.375 0.53125 -0.375 1.515625q0 0.984375 0.375 1.515625q0.375 0.515625 1.15625 0.515625zm6.822052 -5.203125q0.6875 0 1.25 0.21875q0.5625 0.21875 0.953125 0.640625q0.40625 0.40625 0.609375 1.0q0.21875 0.578125 0.21875 1.296875q0 0.734375 -0.21875 1.328125q-0.203125 0.578125 -0.609375 1.0q-0.390625 0.40625 -0.953125 0.640625q-0.5625 0.21875 -1.25 0.21875q-0.6875 0 -1.25 -0.21875q-0.5625 -0.234375 -0.96875 -0.640625q-0.40625 -0.421875 -0.625 -1.0q-0.21875 -0.59375 -0.21875 -1.328125q0 -0.71875 0.21875 -1.296875q0.21875 -0.59375 0.625 -1.0q0.40625 -0.421875 0.96875 -0.640625q0.5625 -0.21875 1.25 -0.21875zm0 5.203125q0.765625 0 1.125 -0.515625q0.375 -0.515625 0.375 -1.515625q0 -1.0 -0.375 -1.515625q-0.359375 -0.53125 -1.125 -0.53125q-0.78125 0 -1.15625 0.53125q-0.375 0.53125 -0.375 1.515625q0 0.984375 0.375 1.515625q0.375 0.515625 1.15625 0.515625zm4.197052 3.0625l0 -8.171875l0.90625 0q0.140625 0 0.234375 0.0625q0.109375 0.0625 0.140625 0.203125l0.125 0.578125q0.359375 -0.421875 0.84375 -0.6875q0.484375 -0.265625 1.140625 -0.265625q0.5 0 0.90625 0.21875q0.421875 0.203125 0.71875 0.609375q0.3125 0.390625 0.46875 0.984375q0.171875 0.578125 0.171875 1.328125q0 0.6875 -0.1875 1.28125q-0.1875 0.578125 -0.53125 1.015625q-0.34375 0.4375 -0.828125 0.6875q-0.484375 0.234375 -1.09375 0.234375q-0.53125 0 -0.890625 -0.15625q-0.359375 -0.171875 -0.640625 -0.453125l0 2.53125l-1.484375 0zm2.875 -7.109375q-0.46875 0 -0.796875 0.203125q-0.3125 0.1875 -0.59375 0.53125l0 2.765625q0.25 0.3125 0.546875 0.4375q0.296875 0.125 0.640625 0.125q0.328125 0 0.59375 -0.125q0.28125 -0.140625 0.46875 -0.390625q0.1875 -0.265625 0.28125 -0.65625q0.109375 -0.390625 0.109375 -0.921875q0 -0.546875 -0.09375 -0.921875q-0.078125 -0.375 -0.25 -0.609375q-0.15625 -0.234375 -0.390625 -0.328125q-0.21875 -0.109375 -0.515625 -0.109375zm9.770416 0.75q0 1.140625 -0.25 1.984375q-0.234375 0.828125 -0.671875 1.375q-0.421875 0.546875 -1.015625 0.8125q-0.578125 0.265625 -1.25 0.265625q-0.671875 0 -1.265625 -0.265625q-0.578125 -0.265625 -1.0 -0.8125q-0.421875 -0.546875 -0.671875 -1.375q-0.234375 -0.84375 -0.234375 -1.984375q0 -1.140625 0.234375 -1.96875q0.25 -0.828125 0.671875 -1.375q0.421875 -0.546875 1.0 -0.8125q0.59375 -0.265625 1.265625 -0.265625q0.671875 0 1.25 0.265625q0.59375 0.265625 1.015625 0.8125q0.4375 0.546875 0.671875 1.375q0.25 0.828125 0.25 1.96875zm-1.53125 0q0 -0.9375 -0.140625 -1.546875q-0.125 -0.625 -0.359375 -0.984375q-0.234375 -0.375 -0.53125 -0.515625q-0.296875 -0.15625 -0.625 -0.15625q-0.3125 0 -0.609375 0.15625q-0.296875 0.140625 -0.53125 0.515625q-0.234375 0.359375 -0.375 0.984375q-0.125 0.609375 -0.125 1.546875q0 0.953125 0.125 1.578125q0.140625 0.609375 0.375 0.984375q0.234375 0.359375 0.53125 0.5q0.296875 0.140625 0.609375 0.140625q0.328125 0 0.625 -0.140625q0.296875 -0.140625 0.53125 -0.5q0.234375 -0.375 0.359375 -0.984375q0.140625 -0.625 0.140625 -1.578125z" fill-rule="nonzero"/><path fill="#000000" fill-opacity="0.0" d="m81.64829 42.902885l47.9685 0l0 14.551182l-47.9685 0z" fill-rule="evenodd"/><path fill="#000000" d="m92.68643 45.50101l0 8.921875l-1.484375 0l0 -8.921875l1.484375 0zm4.2989044 2.671875q0.6875 0 1.25 0.21875q0.5625 0.21875 0.953125 0.640625q0.40625 0.40625 0.609375 1.0q0.21875 0.578125 0.21875 1.296875q0 0.734375 -0.21875 1.328125q-0.203125 0.578125 -0.609375 1.0q-0.390625 0.40625 -0.953125 0.640625q-0.5625 0.21875 -1.25 0.21875q-0.6875 0 -1.25 -0.21875q-0.5625 -0.234375 -0.96875 -0.640625q-0.40625 -0.421875 -0.625 -1.0q-0.21875 -0.59375 -0.21875 -1.328125q0 -0.71875 0.21875 -1.296875q0.21875 -0.59375 0.625 -1.0q0.40625 -0.421875 0.96875 -0.640625q0.5625 -0.21875 1.25 -0.21875zm0 5.203125q0.765625 0 1.125 -0.515625q0.375 -0.515625 0.375 -1.515625q0 -1.0 -0.375 -1.515625q-0.359375 -0.53125 -1.125 -0.53125q-0.78125 0 -1.15625 0.53125q-0.375 0.53125 -0.375 1.515625q0 0.984375 0.375 1.515625q0.375 0.515625 1.15625 0.515625zm6.822052 -5.203125q0.6875 0 1.25 0.21875q0.5625 0.21875 0.953125 0.640625q0.40625 0.40625 0.609375 1.0q0.21875 0.578125 0.21875 1.296875q0 0.734375 -0.21875 1.328125q-0.203125 0.578125 -0.609375 1.0q-0.390625 0.40625 -0.953125 0.640625q-0.5625 0.21875 -1.25 0.21875q-0.6875 0 -1.25 -0.21875q-0.5625 -0.234375 -0.96875 -0.640625q-0.40625 -0.421875 -0.625 -1.0q-0.21875 -0.59375 -0.21875 -1.328125q0 -0.71875 0.21875 -1.296875q0.21875 -0.59375 0.625 -1.0q0.40625 -0.421875 0.96875 -0.640625q0.5625 -0.21875 1.25 -0.21875zm0 5.203125q0.765625 0 1.125 -0.515625q0.375 -0.515625 0.375 -1.515625q0 -1.0 -0.375 -1.515625q-0.359375 -0.53125 -1.125 -0.53125q-0.78125 0 -1.15625 0.53125q-0.375 0.53125 -0.375 1.515625q0 0.984375 0.375 1.515625q0.375 0.515625 1.15625 0.515625zm4.197052 3.0625l0 -8.171875l0.90625 0q0.140625 0 0.234375 0.0625q0.109375 0.0625 0.140625 0.203125l0.125 0.578125q0.359375 -0.421875 0.84375 -0.6875q0.484375 -0.265625 1.140625 -0.265625q0.5 0 0.90625 0.21875q0.421875 0.203125 0.71875 0.609375q0.3125 0.390625 0.46875 0.984375q0.171875 0.578125 0.171875 1.328125q0 0.6875 -0.1875 1.28125q-0.1875 0.578125 -0.53125 1.015625q-0.34375 0.4375 -0.828125 0.6875q-0.484375 0.234375 -1.09375 0.234375q-0.53125 0 -0.890625 -0.15625q-0.359375 -0.171875 -0.640625 -0.453125l0 2.53125l-1.484375 0zm2.875 -7.109375q-0.46875 0 -0.796875 0.203125q-0.3125 0.1875 -0.59375 0.53125l0 2.765625q0.25 0.3125 0.546875 0.4375q0.296875 0.125 0.640625 0.125q0.328125 0 0.59375 -0.125q0.28125 -0.140625 0.46875 -0.390625q0.1875 -0.265625 0.28125 -0.65625q0.109375 -0.390625 0.109375 -0.921875q0 -0.546875 -0.09375 -0.921875q-0.078125 -0.375 -0.25 -0.609375q-0.15625 -0.234375 -0.390625 -0.328125q-0.21875 -0.109375 -0.515625 -0.109375zm9.770416 0.75q0 1.140625 -0.25 1.984375q-0.234375 0.828125 -0.671875 1.375q-0.421875 0.546875 -1.015625 0.8125q-0.578125 0.265625 -1.25 0.265625q-0.671875 0 -1.265625 -0.265625q-0.578125 -0.265625 -1.0 -0.8125q-0.421875 -0.546875 -0.671875 -1.375q-0.234375 -0.84375 -0.234375 -1.984375q0 -1.140625 0.234375 -1.96875q0.25 -0.828125 0.671875 -1.375q0.421875 -0.546875 1.0 -0.8125q0.59375 -0.265625 1.265625 -0.265625q0.671875 0 1.25 0.265625q0.59375 0.265625 1.015625 0.8125q0.4375 0.546875 0.671875 1.375q0.25 0.828125 0.25 1.96875zm-1.53125 0q0 -0.9375 -0.140625 -1.546875q-0.125 -0.625 -0.359375 -0.984375q-0.234375 -0.375 -0.53125 -0.515625q-0.296875 -0.15625 -0.625 -0.15625q-0.3125 0 -0.609375 0.15625q-0.296875 0.140625 -0.53125 0.515625q-0.234375 0.359375 -0.375 0.984375q-0.125 0.609375 -0.125 1.546875q0 0.953125 0.125 1.578125q0.140625 0.609375 0.375 0.984375q0.234375 0.359375 0.53125 0.5q0.296875 0.140625 0.609375 0.140625q0.328125 0 0.625 -0.140625q0.296875 -0.140625 0.53125 -0.5q0.234375 -0.375 0.359375 -0.984375q0.140625 -0.625 0.140625 -1.578125z" fill-rule="nonzero"/><path fill="#000000" fill-opacity="0.0" d="m401.91864 81.9895l47.968506 0l0 14.551178l-47.968506 0z" fill-rule="evenodd"/><path fill="#000000" d="m416.82654 87.2595q0.578125 0 1.0625 0.1875q0.484375 0.1875 0.84375 0.546875q0.359375 0.34375 0.546875 0.875q0.203125 0.515625 0.203125 1.171875q0 0.171875 -0.015625 0.28125q-0.015625 0.109375 -0.0625 0.171875q-0.03125 0.0625 -0.09375 0.09375q-0.0625 0.03125 -0.171875 0.03125l-3.796875 0q0.0625 0.953125 0.5 1.390625q0.453125 0.4375 1.1875 0.4375q0.359375 0 0.609375 -0.078125q0.265625 -0.078125 0.453125 -0.171875q0.203125 -0.109375 0.34375 -0.1875q0.15625 -0.09375 0.296875 -0.09375q0.078125 0 0.140625 0.03125q0.078125 0.03125 0.125 0.109375l0.4375 0.53125q-0.25 0.296875 -0.5625 0.5q-0.296875 0.1875 -0.640625 0.3125q-0.328125 0.109375 -0.671875 0.15625q-0.34375 0.046875 -0.671875 0.046875q-0.640625 0 -1.203125 -0.21875q-0.546875 -0.21875 -0.953125 -0.625q-0.40625 -0.421875 -0.640625 -1.03125q-0.234375 -0.625 -0.234375 -1.421875q0 -0.640625 0.203125 -1.1875q0.203125 -0.5625 0.578125 -0.96875q0.390625 -0.40625 0.9375 -0.640625q0.546875 -0.25 1.25 -0.25zm0.015625 1.0625q-0.640625 0 -1.015625 0.375q-0.359375 0.359375 -0.453125 1.03125l2.78125 0q0 -0.296875 -0.078125 -0.546875q-0.078125 -0.25 -0.25 -0.4375q-0.15625 -0.203125 -0.40625 -0.3125q-0.234375 -0.109375 -0.578125 -0.109375zm5.8671875 5.28125q-0.796875 0 -1.234375 -0.453125q-0.421875 -0.453125 -0.421875 -1.25l0 -3.4375l-0.625 0q-0.125 0 -0.21875 -0.078125q-0.078125 -0.078125 -0.078125 -0.234375l0 -0.59375l0.984375 -0.15625l0.3125 -1.671875q0.03125 -0.125 0.109375 -0.1875q0.09375 -0.078125 0.21875 -0.078125l0.78125 0l0 1.9375l1.609375 0l0 1.0625l-1.609375 0l0 3.34375q0 0.28125 0.140625 0.453125q0.140625 0.15625 0.375 0.15625q0.140625 0 0.234375 -0.03125q0.09375 -0.03125 0.15625 -0.0625q0.078125 -0.046875 0.125 -0.078125q0.0625 -0.03125 0.109375 -0.03125q0.078125 0 0.109375 0.03125q0.046875 0.03125 0.09375 0.09375l0.4375 0.71875q-0.3125 0.265625 -0.734375 0.40625q-0.421875 0.140625 -0.875 0.140625zm2.6283875 -0.09375l0 -8.921875l1.484375 0l0 3.4375q0.359375 -0.34375 0.78125 -0.546875q0.4375 -0.21875 1.015625 -0.21875q0.5 0 0.890625 0.171875q0.390625 0.171875 0.65625 0.484375q0.265625 0.296875 0.390625 0.734375q0.140625 0.421875 0.140625 0.9375l0 3.921875l-1.484375 0l0 -3.921875q0 -0.5625 -0.265625 -0.859375q-0.25 -0.3125 -0.78125 -0.3125q-0.375 0 -0.71875 0.171875q-0.328125 0.171875 -0.625 0.46875l0 4.453125l-1.484375 0zm7.634552 -1.109375l1.765625 0l0 -5.0625q0 -0.296875 0.015625 -0.609375l-1.25 1.046875q-0.078125 0.0625 -0.15625 0.09375q-0.078125 0.015625 -0.15625 0.015625q-0.125 0 -0.234375 -0.046875q-0.09375 -0.0625 -0.140625 -0.125l-0.46875 -0.640625l2.65625 -2.25l1.21875 0l0 7.578125l1.546875 0l0 1.109375l-4.796875 0l0 -1.109375z" fill-rule="nonzero"/><path fill="#000000" fill-opacity="0.0" d="m23.020998 7.9580054l0 124.50394" fill-rule="evenodd"/><path stroke="#000000" stroke-width="4.0" stroke-linejoin="round" stroke-linecap="butt" d="m23.020998 7.9580054l0 124.50394" fill-rule="evenodd"/><path fill="#000000" fill-opacity="0.0" d="m-6.8713913 96.54068l0 -106.11023l35.559055 0l0 106.11023z" fill-rule="evenodd"/><path fill="#000000" d="m6.866108 72.2383q0.109375 0.0625 0.15625 0.125q0.046875 0.0625 0.046875 0.171875q0 0.109375 -0.109375 0.265625q-0.109375 0.140625 -0.25 0.375q-0.140625 0.234375 -0.25 0.5625q-0.109375 0.3125 -0.109375 0.78125q0 0.421875 0.125 0.765625q0.109375 0.328125 0.3125 0.5625q0.1875 0.21875 0.46875 0.328125q0.265625 0.109375 0.578125 0.109375q0.390625 0 0.65625 -0.1875q0.265625 -0.203125 0.453125 -0.515625q0.1875 -0.328125 0.328125 -0.734375q0.125 -0.421875 0.28125 -0.84375q0.140625 -0.4375 0.328125 -0.84375q0.1875 -0.40625 0.46875 -0.734375q0.265625 -0.328125 0.6875 -0.515625q0.40625 -0.203125 0.984375 -0.203125q0.640625 0 1.1875 0.21875q0.546875 0.203125 0.953125 0.625q0.40625 0.40625 0.640625 1.0q0.234375 0.59375 0.234375 1.359375q0 0.921875 -0.328125 1.6875q-0.34375 0.765625 -0.921875 1.296875l-0.609375 -0.375q-0.078125 -0.046875 -0.125 -0.125q-0.046875 -0.078125 -0.046875 -0.171875q0 -0.140625 0.15625 -0.3125q0.140625 -0.1875 0.328125 -0.453125q0.171875 -0.265625 0.328125 -0.640625q0.140625 -0.390625 0.140625 -0.953125q0 -0.453125 -0.125 -0.8125q-0.125 -0.359375 -0.34375 -0.609375q-0.234375 -0.25 -0.546875 -0.375q-0.328125 -0.140625 -0.734375 -0.140625q-0.421875 0 -0.703125 0.203125q-0.28125 0.1875 -0.46875 0.515625q-0.1875 0.3125 -0.3125 0.71875q-0.125 0.40625 -0.265625 0.84375q-0.140625 0.421875 -0.3125 0.84375q-0.1875 0.40625 -0.46875 0.734375q-0.28125 0.3125 -0.703125 0.515625q-0.4375 0.1875 -1.078125 0.1875q-0.5 0 -0.96875 -0.1875q-0.484375 -0.203125 -0.84375 -0.578125q-0.375 -0.375 -0.59375 -0.921875q-0.21875 -0.546875 -0.21875 -1.265625q0 -0.796875 0.25 -1.453125q0.25 -0.671875 0.734375 -1.15625l0.609375 0.3125zm8.0625 -1.9857483l-9.8125 0l0 -1.1875l3.96875 0q-0.453125 -0.4375 -0.734375 -0.953125q-0.28125 -0.53125 -0.28125 -1.21875q0 -0.5625 0.1875 -0.984375q0.1875 -0.421875 0.53125 -0.703125q0.328125 -0.28125 0.796875 -0.421875q0.46875 -0.15625 1.046875 -0.15625l4.296875 0l0 1.1875l-4.296875 0q-0.765625 0 -1.1875 0.359375q-0.421875 0.34375 -0.421875 1.0625q0 0.53125 0.25 0.984375q0.25 0.453125 0.6875 0.84375l4.96875 0l0 1.1875zm0 -12.379166l0 0.53125q0 0.171875 -0.046875 0.28125q-0.0625 0.109375 -0.234375 0.140625l-0.625 0.140625q0.234375 0.265625 0.4375 0.515625q0.1875 0.25 0.3125 0.53125q0.125 0.28125 0.1875 0.59375q0.078125 0.3125 0.078125 0.703125q0 0.390625 -0.109375 0.734375q-0.109375 0.34375 -0.328125 0.609375q-0.21875 0.25 -0.546875 0.40625q-0.34375 0.140625 -0.8125 0.140625q-0.390625 0 -0.765625 -0.21875q-0.375 -0.21875 -0.65625 -0.703125q-0.296875 -0.5 -0.46875 -1.296875q-0.1875 -0.796875 -0.21875 -1.9375l-0.515625 0q-0.796875 0 -1.1875 0.34375q-0.40625 0.328125 -0.40625 0.984375q0 0.4375 0.109375 0.734375q0.109375 0.296875 0.25 0.515625q0.125 0.21875 0.234375 0.375q0.109375 0.15625 0.109375 0.3125q0 0.109375 -0.0625 0.203125q-0.0625 0.09375 -0.15625 0.140625l-0.375 0.21875q-0.546875 -0.5625 -0.8125 -1.203125q-0.265625 -0.65625 -0.265625 -1.4375q0 -0.5625 0.1875 -1.0q0.1875 -0.453125 0.53125 -0.75q0.328125 -0.296875 0.796875 -0.453125q0.46875 -0.15625 1.046875 -0.15625l4.3125 0zm-0.71875 3.078125q0 -0.3125 -0.0625 -0.5625q-0.078125 -0.265625 -0.1875 -0.484375q-0.125 -0.234375 -0.28125 -0.4375q-0.171875 -0.21875 -0.375 -0.421875l-1.40625 0q0.015625 0.828125 0.125 1.40625q0.09375 0.5625 0.265625 0.921875q0.171875 0.359375 0.40625 0.53125q0.21875 0.15625 0.5 0.15625q0.265625 0 0.453125 -0.078125q0.1875 -0.09375 0.3125 -0.234375q0.125 -0.15625 0.1875 -0.359375q0.0625 -0.203125 0.0625 -0.4375zm0.71875 -4.8667145l-6.75 0l0 -0.6875q0 -0.1875 0.078125 -0.265625q0.0625 -0.078125 0.25 -0.09375l1.046875 -0.078125q-0.703125 -0.359375 -1.09375 -0.859375q-0.40625 -0.515625 -0.40625 -1.203125q0 -0.28125 0.0625 -0.5q0.0625 -0.234375 0.1875 -0.421875l0.875 0.15625q0.171875 0.046875 0.171875 0.203125q0 0.09375 -0.0625 0.296875q-0.0625 0.1875 -0.0625 0.53125q0 0.625 0.359375 1.046875q0.359375 0.40625 1.046875 0.6875l4.296875 0l0 1.1875zm-6.859375 -8.043091q0 -0.609375 0.203125 -1.125q0.203125 -0.515625 0.59375 -0.890625q0.375 -0.375 0.9375 -0.578125q0.5625 -0.203125 1.28125 -0.203125q0.28125 0 0.375 0.0625q0.09375 0.046875 0.09375 0.21875l0 4.484375q0.640625 0 1.125 -0.15625q0.46875 -0.171875 0.78125 -0.453125q0.3125 -0.28125 0.46875 -0.65625q0.15625 -0.390625 0.15625 -0.875q0 -0.453125 -0.09375 -0.765625q-0.109375 -0.328125 -0.21875 -0.5625q-0.125 -0.234375 -0.234375 -0.390625q-0.109375 -0.15625 -0.109375 -0.265625q0 -0.140625 0.125 -0.234375l0.421875 -0.328125q0.265625 0.21875 0.46875 0.53125q0.203125 0.296875 0.328125 0.65625q0.125 0.34375 0.1875 0.71875q0.0625 0.375 0.0625 0.734375q0 0.703125 -0.234375 1.296875q-0.234375 0.59375 -0.6875 1.03125q-0.46875 0.421875 -1.140625 0.65625q-0.671875 0.234375 -1.546875 0.234375q-0.703125 0 -1.3125 -0.203125q-0.609375 -0.21875 -1.0625 -0.625q-0.453125 -0.40625 -0.703125 -0.984375q-0.265625 -0.59375 -0.265625 -1.328125zm0.875 -0.03125q0 0.859375 0.5 1.359375q0.5 0.484375 1.375 0.609375l0 -3.671875q-0.421875 0 -0.765625 0.109375q-0.34375 0.109375 -0.59375 0.328125q-0.25 0.21875 -0.375 0.546875q-0.140625 0.3125 -0.140625 0.71875zm5.984375 -9.030792q0 0.25 -0.25 0.3125l-0.8125 0.109375q0.515625 0.4375 0.84375 1.0q0.3125 0.546875 0.3125 1.265625q0 0.578125 -0.21875 1.0625q-0.234375 0.46875 -0.65625 0.796875q-0.4375 0.328125 -1.078125 0.515625q-0.65625 0.171875 -1.5 0.171875q-0.734375 0 -1.375 -0.1875q-0.65625 -0.203125 -1.125 -0.578125q-0.46875 -0.375 -0.734375 -0.921875q-0.28125 -0.546875 -0.28125 -1.234375q0 -0.609375 0.21875 -1.046875q0.203125 -0.4375 0.578125 -0.796875l-3.734375 0l0 -1.1875l9.8125 0l0 0.71875zm-0.859375 2.296875q0 -0.578125 -0.265625 -1.015625q-0.28125 -0.4375 -0.765625 -0.8125l-3.265625 0q-0.4375 0.328125 -0.609375 0.71875q-0.171875 0.390625 -0.171875 0.859375q0 0.953125 0.671875 1.46875q0.671875 0.5 1.90625 0.5q0.671875 0 1.140625 -0.109375q0.46875 -0.125 0.78125 -0.34375q0.296875 -0.21875 0.4375 -0.53125q0.140625 -0.328125 0.140625 -0.734375zm-0.234375 -9.053951l0 -4.125002l1.09375 0l0 5.421873l-9.546875 0l0 -1.2968712l8.453125 0zm1.09375 -13.413134l0 1.0q0 0.171875 -0.078125 0.28125q-0.09375 0.109375 -0.234375 0.15625l-2.296875 0.890625l0 4.28125l2.296875 0.90625q0.125 0.046875 0.21875 0.15625q0.09375 0.109375 0.09375 0.28125l0 1.0l-9.546875 -3.828125l0 -1.3125l9.546875 -3.8125zm-3.546875 6.25l0 -3.5625l-3.890625 1.5q-0.359375 0.15625 -0.890625 0.296875q0.265625 0.0625 0.5 0.140625q0.234375 0.0625 0.40625 0.125l3.875 1.5zm-6.0 -8.125595q0 -0.171875 0.046875 -0.25q0.03125 -0.09375 0.171875 -0.1875l7.203125 -5.531249q-0.1875 0.015625 -0.34375 0.03125q-0.15625 0 -0.3125 0l-6.765625 0l0 -1.140625l9.546875 0l0 0.65625q0 0.15625 -0.046875 0.265625q-0.0625 0.09375 -0.1875 0.1875l-7.1875 5.531249q0.171875 -0.015625 0.328125 -0.015625q0.15625 -0.015625 0.296875 -0.015625l6.796875 0l0 1.140625l-9.546875 0l0 -0.671875l0 0z" fill-rule="nonzero"/><path fill="#000000" fill-opacity="0.0" d="m74.13123 78.61942c0 -41.399612 58.851646 -74.96063 131.44882 -74.96063c72.59717 0 131.44882 33.561016 131.44882 74.96063c0 41.399612 -58.851654 74.960625 -131.44882 74.960625c-72.59717 0 -131.44882 -33.561012 -131.44882 -74.960625z" fill-rule="evenodd"/><path stroke="#ff0000" stroke-width="2.0" stroke-linejoin="round" stroke-linecap="butt" d="m74.13123 78.61942c0 -41.399612 58.851646 -74.96063 131.44882 -74.96063c72.59717 0 131.44882 33.561016 131.44882 74.96063c0 41.399612 -58.851654 74.960625 -131.44882 74.960625c-72.59717 0 -131.44882 -33.561012 -131.44882 -74.960625z" fill-rule="evenodd"/><path fill="#000000" fill-opacity="0.0" d="m107.23622 -7.1758533l191.87401 0l0 51.716537l-191.87401 0z" fill-rule="evenodd"/><path fill="#ff0000" d="m195.61124 10.342896q0 1.15625 -0.28125 2.0q-0.265625 0.828125 -0.734375 1.375q-0.46875 0.53125 -1.109375 0.796875q-0.640625 0.265625 -1.359375 0.265625q-1.671875 0 -2.53125 -1.109375q-0.84375 -1.125 -0.84375 -3.25q0 -1.171875 0.265625 -2.0q0.28125 -0.8437505 0.75 -1.3750005q0.46875 -0.546875 1.109375 -0.8125q0.640625 -0.265625 1.359375 -0.265625q1.671875 0 2.515625 1.125q0.859375 1.1093755 0.859375 3.2500005zm-1.703125 0.078125q0 -1.515625 -0.40625 -2.25q-0.390625 -0.7500005 -1.328125 -0.7500005q-0.453125 0 -0.78125 0.203125q-0.328125 0.1875 -0.546875 0.5625005q-0.203125 0.359375 -0.296875 0.90625q-0.09375 0.546875 -0.09375 1.25q0 1.5 0.40625 2.25q0.40625 0.734375 1.3125 0.734375q0.46875 0 0.796875 -0.1875q0.328125 -0.1875 0.53125 -0.5625q0.21875 -0.375 0.3125 -0.90625q0.09375 -0.546875 0.09375 -1.25zm8.577866 1.625q0 0.703125 -0.265625 1.21875q-0.25 0.515625 -0.71875 0.859375q-0.453125 0.328125 -1.09375 0.5q-0.640625 0.15625 -1.390625 0.15625q-0.671875 0 -1.296875 -0.078125q-0.625 -0.078125 -1.234375 -0.265625l0 -1.578125q0.296875 0.09375 0.625 0.1875q0.328125 0.09375 0.65625 0.171875q0.328125 0.0625 0.640625 0.109375q0.328125 0.03125 0.640625 0.03125q0.453125 0 0.765625 -0.078125q0.328125 -0.078125 0.53125 -0.21875q0.203125 -0.140625 0.28125 -0.328125q0.09375 -0.1875 0.09375 -0.40625q0 -0.3125 -0.1875 -0.53125q-0.171875 -0.21875 -0.46875 -0.375q-0.28125 -0.15625 -0.65625 -0.28125q-0.375 -0.140625 -0.765625 -0.28125q-0.375 -0.15625 -0.75 -0.34375q-0.375 -0.1875 -0.671875 -0.46875q-0.296875 -0.28125 -0.484375 -0.671875q-0.171875 -0.390625 -0.171875 -0.9375q0 -0.5000005 0.1875 -0.9375005q0.1875 -0.453125 0.578125 -0.78125q0.390625 -0.34375 1.0 -0.546875q0.609375 -0.203125 1.46875 -0.203125q0.25 0 0.53125 0.03125q0.28125 0.015625 0.546875 0.0625q0.265625 0.03125 0.515625 0.078125q0.265625 0.046875 0.46875 0.109375l0 1.453125q-0.203125 -0.078125 -0.453125 -0.140625q-0.25 -0.0625 -0.515625 -0.109375q-0.265625 -0.046875 -0.53125 -0.078125q-0.265625 -0.03125 -0.5 -0.03125q-0.4375 0 -0.734375 0.078125q-0.28125 0.0625 -0.46875 0.1875q-0.1875 0.125 -0.28125 0.296875q-0.078125 0.17187548 -0.078125 0.39062548q0 0.265625 0.171875 0.453125q0.1875 0.1875 0.484375 0.34375q0.296875 0.15625 0.671875 0.296875q0.375 0.125 0.765625 0.28125q0.390625 0.15625 0.765625 0.359375q0.375 0.1875 0.671875 0.46875q0.296875 0.265625 0.46875 0.65625q0.1875 0.375 0.1875 0.890625zm7.4684906 -3.21875q0 0.65625 -0.21875 1.21875q-0.21875 0.5625 -0.65625 0.984375q-0.4375 0.40625 -1.09375 0.640625q-0.640625 0.21875 -1.5 0.21875l-0.8125 0l0 2.734375l-1.625 0l0 -8.5l2.5 0q0.828125 0 1.453125 0.1875q0.640625 0.171875 1.0625 0.515625q0.4375 0.34375 0.65625 0.84375q0.234375 0.5000005 0.234375 1.1562505zm-1.671875 0.109375q0 -0.34375 -0.109375 -0.609375q-0.109375 -0.28125 -0.328125 -0.46875048q-0.21875 -0.203125 -0.5625 -0.296875q-0.328125 -0.109375 -0.78125 -0.109375l-0.828125 0l0 3.1093755l0.890625 0q0.40625 0 0.71875 -0.109375q0.328125 -0.109375 0.546875 -0.328125q0.21875 -0.21875 0.328125 -0.515625q0.125 -0.296875 0.125 -0.671875zm5.0466156 -1.4687505l0 2.3593755l3.21875 0l0 1.3125l-3.21875 0l0 3.484375l-1.625 0l0 -8.5l5.015625 0l0 1.34375l-3.390625 0z" fill-rule="nonzero"/><path fill="#ff0000" d="m164.2529 30.624146l-0.03125 -0.859375q-0.21875 0.21875 -0.453125 0.40625q-0.21875 0.1875 -0.5 0.328125q-0.265625 0.125 -0.59375 0.203125q-0.3125 0.078125 -0.703125 0.078125q-0.5 0 -0.890625 -0.15625q-0.375 -0.15625 -0.640625 -0.421875q-0.265625 -0.265625 -0.40625 -0.640625q-0.125 -0.375 -0.125 -0.828125q0 -0.46875 0.203125 -0.859375q0.203125 -0.40625 0.609375 -0.6875q0.40625 -0.296875 1.015625 -0.453125q0.609375 -0.15625 1.421875 -0.15625l0.875 0l0 -0.40625q0 -0.25 -0.078125 -0.453125q-0.078125 -0.203125 -0.234375 -0.34375q-0.15625 -0.15625 -0.40625 -0.234375q-0.25 -0.078125 -0.625 -0.078125q-0.59375 0 -1.171875 0.140625q-0.5625 0.125 -1.09375 0.375l0 -1.265625q0.484375 -0.203125 1.09375 -0.3125q0.625 -0.125 1.296875 -0.125q0.734375 0 1.265625 0.140625q0.53125 0.140625 0.859375 0.421875q0.34375 0.265625 0.5 0.6875q0.171875 0.421875 0.171875 0.984375l0 4.515625l-1.359375 0zm-0.21875 -2.921875l-0.96875 0q-0.40625 0 -0.6875 0.078125q-0.28125 0.078125 -0.46875 0.21875q-0.171875 0.125 -0.25 0.3125q-0.078125 0.171875 -0.078125 0.375q0 0.40625 0.25 0.625q0.265625 0.203125 0.71875 0.203125q0.328125 0 0.6875 -0.234375q0.359375 -0.25 0.796875 -0.6875l0 -0.890625zm7.6559906 -1.125q0.015625 -0.359375 -0.03125 -0.625q-0.046875 -0.265625 -0.15625 -0.421875q-0.109375 -0.171875 -0.265625 -0.25q-0.15625 -0.078125 -0.359375 -0.078125q-0.34375 0 -0.71875 0.296875q-0.375 0.28125 -0.828125 0.9375l0 4.1875l-1.625 0l0 -6.609375l1.4375 0l0.0625 0.953125q0.15625 -0.25 0.359375 -0.453125q0.203125 -0.203125 0.453125 -0.34375q0.25 -0.140625 0.5625 -0.21875q0.3125 -0.078125 0.671875 -0.078125q0.5 0 0.890625 0.171875q0.390625 0.171875 0.640625 0.515625q0.265625 0.328125 0.390625 0.84375q0.140625 0.5 0.109375 1.171875l-1.59375 0zm8.843491 0.234375q0 0.15625 -0.015625 0.421875q-0.015625 0.265625 -0.03125 0.484375l-4.34375 0q0 0.4375 0.125 0.78125q0.140625 0.328125 0.375 0.546875q0.25 0.21875 0.59375 0.34375q0.34375 0.109375 0.75 0.109375q0.484375 0 1.03125 -0.0625q0.5625 -0.078125 1.15625 -0.25l0 1.265625q-0.265625 0.0625 -0.5625 0.125q-0.296875 0.0625 -0.609375 0.109375q-0.3125 0.046875 -0.640625 0.0625q-0.3125 0.03125 -0.609375 0.03125q-0.75 0 -1.359375 -0.21875q-0.59375 -0.21875 -1.015625 -0.640625q-0.40625 -0.421875 -0.640625 -1.03125q-0.21875 -0.625 -0.21875 -1.4375q0 -0.796875 0.21875 -1.453125q0.234375 -0.671875 0.625 -1.140625q0.40625 -0.46875 0.984375 -0.71875q0.578125 -0.265625 1.296875 -0.265625q0.703125 0 1.234375 0.21875q0.546875 0.21875 0.90625 0.609375q0.359375 0.390625 0.546875 0.9375q0.203125 0.53125 0.203125 1.171875zm-1.625 -0.234375q0.015625 -0.390625 -0.09375 -0.671875q-0.109375 -0.296875 -0.296875 -0.484375q-0.171875 -0.1875 -0.40625 -0.28125q-0.234375 -0.09375 -0.515625 -0.09375q-0.59375 0 -0.984375 0.40625q-0.375 0.40625 -0.453125 1.125l2.75 0zm7.3278656 4.046875l-0.03125 -0.859375q-0.21875 0.21875 -0.453125 0.40625q-0.21875 0.1875 -0.5 0.328125q-0.265625 0.125 -0.59375 0.203125q-0.3125 0.078125 -0.703125 0.078125q-0.5 0 -0.890625 -0.15625q-0.375 -0.15625 -0.640625 -0.421875q-0.265625 -0.265625 -0.40625 -0.640625q-0.125 -0.375 -0.125 -0.828125q0 -0.46875 0.203125 -0.859375q0.203125 -0.40625 0.609375 -0.6875q0.40625 -0.296875 1.015625 -0.453125q0.609375 -0.15625 1.421875 -0.15625l0.875 0l0 -0.40625q0 -0.25 -0.078125 -0.453125q-0.078125 -0.203125 -0.234375 -0.34375q-0.15625 -0.15625 -0.40625 -0.234375q-0.25 -0.078125 -0.625 -0.078125q-0.59375 0 -1.171875 0.140625q-0.5625 0.125 -1.09375 0.375l0 -1.265625q0.484375 -0.203125 1.09375 -0.3125q0.625 -0.125 1.296875 -0.125q0.734375 0 1.265625 0.140625q0.53125 0.140625 0.859375 0.421875q0.34375 0.265625 0.5 0.6875q0.171875 0.421875 0.171875 0.984375l0 4.515625l-1.359375 0zm-0.21875 -2.921875l-0.96875 0q-0.40625 0 -0.6875 0.078125q-0.28125 0.078125 -0.46875 0.21875q-0.171875 0.125 -0.25 0.3125q-0.078125 0.171875 -0.078125 0.375q0 0.40625 0.25 0.625q0.265625 0.203125 0.71875 0.203125q0.328125 0 0.6875 -0.234375q0.359375 -0.25 0.796875 -0.6875l0 -0.890625zm16.811981 -1.359375q0 1.046875 -0.234375 1.875q-0.21875 0.8125 -0.65625 1.390625q-0.4375 0.5625 -1.078125 0.875q-0.625 0.296875 -1.4375 0.296875q-0.703125 0 -1.296875 -0.25q-0.59375 -0.25 -1.03125 -0.78125q-0.421875 -0.53125 -0.671875 -1.359375q-0.234375 -0.828125 -0.234375 -1.96875q0 -1.0625 0.234375 -1.875q0.234375 -0.828125 0.65625 -1.390625q0.4375 -0.578125 1.078125 -0.875q0.640625 -0.3125 1.453125 -0.3125q0.703125 0 1.296875 0.25q0.59375 0.25 1.015625 0.78125q0.421875 0.53125 0.65625 1.359375q0.25 0.8125 0.25 1.984375zm-5.03125 0.015625q0 0.140625 0 0.25q0 0.109375 0 0.234375l3.1875 -2.3125q-0.21875 -0.640625 -0.59375 -0.953125q-0.375 -0.3125 -0.890625 -0.3125q-0.359375 0 -0.671875 0.1875q-0.3125 0.1875 -0.546875 0.578125q-0.21875 0.375 -0.359375 0.953125q-0.125 0.578125 -0.125 1.375zm3.421875 0.03125q0 -0.109375 0 -0.21875q0 -0.125 0 -0.21875l-3.171875 2.28125q0.203125 0.640625 0.578125 0.953125q0.375 0.296875 0.875 0.296875q0.375 0 0.6875 -0.1875q0.3125 -0.1875 0.546875 -0.5625q0.234375 -0.390625 0.359375 -0.96875q0.125 -0.59375 0.125 -1.375zm5.5778656 1.828125q0.265625 0 0.5 0.109375q0.234375 0.09375 0.40625 0.265625q0.1875 0.171875 0.28125 0.40625q0.09375 0.234375 0.09375 0.5q0 0.265625 -0.09375 0.5q-0.09375 0.234375 -0.28125 0.40625q-0.171875 0.171875 -0.40625 0.265625q-0.234375 0.109375 -0.5 0.109375q-0.265625 0 -0.5 -0.109375q-0.21875 -0.09375 -0.390625 -0.265625q-0.15625 -0.171875 -0.265625 -0.40625q-0.09375 -0.234375 -0.09375 -0.5q0 -0.265625 0.09375 -0.5q0.109375 -0.234375 0.265625 -0.40625q0.171875 -0.171875 0.390625 -0.265625q0.234375 -0.109375 0.5 -0.109375zm10.687241 -1.875q0 1.046875 -0.234375 1.875q-0.21875 0.8125 -0.65625 1.390625q-0.4375 0.5625 -1.078125 0.875q-0.625 0.296875 -1.4375 0.296875q-0.703125 0 -1.296875 -0.25q-0.59375 -0.25 -1.03125 -0.78125q-0.421875 -0.53125 -0.671875 -1.359375q-0.234375 -0.828125 -0.234375 -1.96875q0 -1.0625 0.234375 -1.875q0.234375 -0.828125 0.65625 -1.390625q0.4375 -0.578125 1.078125 -0.875q0.640625 -0.3125 1.453125 -0.3125q0.703125 0 1.296875 0.25q0.59375 0.25 1.015625 0.78125q0.421875 0.53125 0.65625 1.359375q0.25 0.8125 0.25 1.984375zm-5.03125 0.015625q0 0.140625 0 0.25q0 0.109375 0 0.234375l3.1875 -2.3125q-0.21875 -0.640625 -0.59375 -0.953125q-0.375 -0.3125 -0.890625 -0.3125q-0.359375 0 -0.671875 0.1875q-0.3125 0.1875 -0.546875 0.578125q-0.21875 0.375 -0.359375 0.953125q-0.125 0.578125 -0.125 1.375zm3.421875 0.03125q0 -0.109375 0 -0.21875q0 -0.125 0 -0.21875l-3.171875 2.28125q0.203125 0.640625 0.578125 0.953125q0.375 0.296875 0.875 0.296875q0.375 0 0.6875 -0.1875q0.3125 -0.1875 0.546875 -0.5625q0.234375 -0.390625 0.359375 -0.96875q0.125 -0.59375 0.125 -1.375zm5.5778656 1.828125q0.265625 0 0.5 0.109375q0.234375 0.09375 0.40625 0.265625q0.1875 0.171875 0.28125 0.40625q0.09375 0.234375 0.09375 0.5q0 0.265625 -0.09375 0.5q-0.09375 0.234375 -0.28125 0.40625q-0.171875 0.171875 -0.40625 0.265625q-0.234375 0.109375 -0.5 0.109375q-0.265625 0 -0.5 -0.109375q-0.21875 -0.09375 -0.390625 -0.265625q-0.15625 -0.171875 -0.265625 -0.40625q-0.09375 -0.234375 -0.09375 -0.5q0 -0.265625 0.09375 -0.5q0.109375 -0.234375 0.265625 -0.40625q0.171875 -0.171875 0.390625 -0.265625q0.234375 -0.109375 0.5 -0.109375zm10.687241 -1.875q0 1.046875 -0.234375 1.875q-0.21875 0.8125 -0.65625 1.390625q-0.4375 0.5625 -1.078125 0.875q-0.625 0.296875 -1.4375 0.296875q-0.703125 0 -1.296875 -0.25q-0.59375 -0.25 -1.03125 -0.78125q-0.421875 -0.53125 -0.671875 -1.359375q-0.234375 -0.828125 -0.234375 -1.96875q0 -1.0625 0.234375 -1.875q0.234375 -0.828125 0.65625 -1.390625q0.4375 -0.578125 1.078125 -0.875q0.640625 -0.3125 1.453125 -0.3125q0.703125 0 1.296875 0.25q0.59375 0.25 1.015625 0.78125q0.421875 0.53125 0.65625 1.359375q0.25 0.8125 0.25 1.984375zm-5.03125 0.015625q0 0.140625 0 0.25q0 0.109375 0 0.234375l3.1875 -2.3125q-0.21875 -0.640625 -0.59375 -0.953125q-0.375 -0.3125 -0.890625 -0.3125q-0.359375 0 -0.671875 0.1875q-0.3125 0.1875 -0.546875 0.578125q-0.21875 0.375 -0.359375 0.953125q-0.125 0.578125 -0.125 1.375zm3.421875 0.03125q0 -0.109375 0 -0.21875q0 -0.125 0 -0.21875l-3.171875 2.28125q0.203125 0.640625 0.578125 0.953125q0.375 0.296875 0.875 0.296875q0.375 0 0.6875 -0.1875q0.3125 -0.1875 0.546875 -0.5625q0.234375 -0.390625 0.359375 -0.96875q0.125 -0.59375 0.125 -1.375zm5.577881 1.828125q0.265625 0 0.5 0.109375q0.234375 0.09375 0.40625 0.265625q0.1875 0.171875 0.28125 0.40625q0.09375 0.234375 0.09375 0.5q0 0.265625 -0.09375 0.5q-0.09375 0.234375 -0.28125 0.40625q-0.171875 0.171875 -0.40625 0.265625q-0.234375 0.109375 -0.5 0.109375q-0.265625 0 -0.5 -0.109375q-0.21875 -0.09375 -0.39064026 -0.265625q-0.15625 -0.171875 -0.265625 -0.40625q-0.09375 -0.234375 -0.09375 -0.5q0 -0.265625 0.09375 -0.5q0.109375 -0.234375 0.265625 -0.40625q0.17189026 -0.171875 0.39064026 -0.265625q0.234375 -0.109375 0.5 -0.109375zm10.687225 -1.875q0 1.046875 -0.234375 1.875q-0.21875 0.8125 -0.65625 1.390625q-0.4375 0.5625 -1.078125 0.875q-0.625 0.296875 -1.4375 0.296875q-0.703125 0 -1.296875 -0.25q-0.59375 -0.25 -1.03125 -0.78125q-0.421875 -0.53125 -0.671875 -1.359375q-0.234375 -0.828125 -0.234375 -1.96875q0 -1.0625 0.234375 -1.875q0.234375 -0.828125 0.65625 -1.390625q0.4375 -0.578125 1.078125 -0.875q0.640625 -0.3125 1.453125 -0.3125q0.703125 0 1.296875 0.25q0.59375 0.25 1.015625 0.78125q0.421875 0.53125 0.65625 1.359375q0.25 0.8125 0.25 1.984375zm-5.03125 0.015625q0 0.140625 0 0.25q0 0.109375 0 0.234375l3.1875 -2.3125q-0.21875 -0.640625 -0.59375 -0.953125q-0.375 -0.3125 -0.890625 -0.3125q-0.359375 0 -0.671875 0.1875q-0.3125 0.1875 -0.546875 0.578125q-0.21875 0.375 -0.359375 0.953125q-0.125 0.578125 -0.125 1.375zm3.421875 0.03125q0 -0.109375 0 -0.21875q0 -0.125 0 -0.21875l-3.171875 2.28125q0.203125 0.640625 0.578125 0.953125q0.375 0.296875 0.875 0.296875q0.375 0 0.6875 -0.1875q0.3125 -0.1875 0.546875 -0.5625q0.234375 -0.390625 0.359375 -0.96875q0.125 -0.59375 0.125 -1.375z" fill-rule="nonzero"/><path fill="#000000" fill-opacity="0.0" d="m202.40617 83.638214c3.2441254 -14.498558 -21.475388 -32.36487 -55.2126 -39.90551c-33.737206 -7.5406456 -63.7165 -1.900135 -66.96063 12.598427c-3.2441254 14.498558 21.475395 32.36487 55.2126 39.90551c33.737213 7.540642 63.716507 1.9001389 66.96063 -12.598427z" fill-rule="evenodd"/><path stroke="#ff0000" stroke-width="2.0" stroke-linejoin="round" stroke-linecap="butt" d="m202.40617 83.638214c3.2441254 -14.498558 -21.475388 -32.36487 -55.2126 -39.90551c-33.737206 -7.5406456 -63.7165 -1.900135 -66.96063 12.598427c-3.2441254 14.498558 21.475395 32.36487 55.2126 39.90551c33.737213 7.540642 63.716507 1.9001389 66.96063 -12.598427z" fill-rule="evenodd"/></g></svg>